<?xml version="1.0" encoding="utf-8"?>
<!-- Generator: Adobe Illustrator 26.0.1, SVG Export Plug-In . SVG Version: 6.00 Build 0)  -->
<svg version="1.1" id="圖層_1" xmlns="http://www.w3.org/2000/svg" xmlns:xlink="http://www.w3.org/1999/xlink" x="0px" y="0px"
	 viewBox="0 0 595.28 841.89" style="enable-background:new 0 0 595.28 841.89;" xml:space="preserve">
<style type="text/css">
	.st0{fill:#E4A029;}
	.st1{fill:#B66927;}
	.st2{fill:#E4A029;stroke:#B66927;stroke-miterlimit:10;}
</style>
<path class="st0" d="M142.89,492.19c0-85.47,154.75-297.25,154.75-297.25s154.75,211.78,154.75,297.25S383.1,646.94,297.64,646.94
	S142.89,577.66,142.89,492.19z"/>
<g>
	<line class="st0" x1="298.07" y1="699.34" x2="298.07" y2="264.34"/>
	<polygon class="st1" points="293.57,699.34 298.07,264.34 302.57,699.34 293.57,699.34 	"/>
</g>
<path class="st2" d="M383,537"/>
<path class="st2" d="M383,537"/>
<path class="st2" d="M297.64,600"/>
<g>
	<line class="st0" x1="297.64" y1="576" x2="420" y2="515"/>
	<polygon class="st1" points="296.97,574.66 420,515 298.31,577.34 296.97,574.66 	"/>
</g>
<g>
	<line class="st0" x1="297.64" y1="487.5" x2="383" y2="443"/>
	<polygon class="st1" points="296.94,486.17 383,443 298.33,488.83 296.94,486.17 	"/>
</g>
<g>
	<line class="st0" x1="297.64" y1="415" x2="358.82" y2="383"/>
	<polygon class="st1" points="296.94,413.67 358.82,383 298.33,416.33 296.94,413.67 	"/>
</g>
<g>
	<line class="st0" x1="297.64" y1="341" x2="340.32" y2="322"/>
	<polygon class="st1" points="297.03,339.63 340.32,322 298.25,342.37 297.03,339.63 	"/>
</g>
<g>
	<line class="st0" x1="297.56" y1="576.15" x2="174.95" y2="515.66"/>
	<polygon class="st1" points="296.9,577.5 174.95,515.66 298.23,574.81 296.9,577.5 	"/>
</g>
<g>
	<line class="st0" x1="297.64" y1="487.5" x2="211.74" y2="444.04"/>
	<polygon class="st1" points="296.96,488.84 211.74,444.04 298.31,486.16 296.96,488.84 	"/>
</g>
<g>
	<line class="st0" x1="297.7" y1="414.96" x2="236.48" y2="383.04"/>
	<polygon class="st1" points="297.01,416.29 236.48,383.04 298.39,413.63 297.01,416.29 	"/>
</g>
<g>
	<line class="st0" x1="298.07" y1="341" x2="254.4" y2="324.4"/>
	<polygon class="st1" points="297.54,342.4 254.4,324.4 298.6,339.6 297.54,342.4 	"/>
</g>
</svg>
